<svg width="200" height="200" xmlns="http://www.w3.org/2000/svg">

 <g>
  <title>Layer 1</title>
  <g stroke="null" id="svg_6">
   <g stroke="null">
    <path stroke="null" d="m3.01243,106.21334c-3.34203,-3.34455 -3.34203,-8.81381 0,-12.15264l91.02584,-90.93863c3.34203,-3.33883 8.82227,-3.33883 12.16429,0l91.02011,90.93863c3.34203,3.33883 3.34203,8.80809 0,12.14691l-91.02011,90.9329c-3.34203,3.33883 -8.82227,3.33883 -12.16429,0l-91.02584,-90.92718z" fill="#55ACEE"/>
   </g>
   <g stroke="null" id="svg_5">
    <path stroke="null" id="svg_1" d="m79.61324,105.86018l10.99776,12.04008l-19.24997,21.07439l-10.99776,-12.04433l19.24997,-21.07013z" fill="#9AAAB4"/>
    <path stroke="null" id="svg_2" d="m32.42018,145.95261l22.86663,-25.02956c3.03722,-3.32507 7.96054,-3.32507 10.99776,0l10.99776,12.04008c3.03722,3.32507 3.03722,8.71501 0,12.04008l-22.86274,25.02956c-6.07443,6.6544 -15.92886,6.6544 -22.0033,0c-6.07055,-6.64588 -6.06666,-17.43001 0.00389,-24.08015z" fill="#66757F"/>
    <circle stroke="null" id="svg_3" r="48.69606" cy="80.21329" cx="114.46782" fill="#8899A6"/>
    <circle stroke="null" id="svg_4" r="34.2676" cy="80.21329" cx="114.03763" fill="#BBDDF5"/>
   </g>
  </g>
 </g>
</svg>